<svg xmlns="http://www.w3.org/2000/svg" width="17.207" height="8" viewBox="0 0 17.207 8"><g transform="translate(-18.793 -22.5)"><path d="M36,26.5a.5.5,0,0,0-.5-.5h-16a.5.5,0,0,0,0,1h16A.5.5,0,0,0,36,26.5Z" transform="translate(54.793 53) rotate(180)" fill="#21224a" fill-rule="evenodd"/><path d="M23.354,22.646a.5.5,0,0,0-.707,0L18.793,26.5l3.854,3.854a.5.5,0,0,0,.707-.707L20.207,26.5l3.146-3.146A.5.5,0,0,0,23.354,22.646Z" transform="translate(54.793 53) rotate(180)" fill="#21224a" fill-rule="evenodd"/></g></svg>